<?xml version="1.0" encoding="UTF-8" standalone="no"?>
<svg width="24px" height="24px" viewBox="0 0 24 24" version="1.1" xmlns="http://www.w3.org/2000/svg" xmlns:xlink="http://www.w3.org/1999/xlink">
    <!-- Generator: Sketch 41.2 (35397) - http://www.bohemiancoding.com/sketch -->
    <title>Shape</title>
    <desc>Created with Sketch.</desc>
    <defs>
        <linearGradient x1="50%" y1="19.4792897%" x2="50%" y2="86.5814707%" id="linearGradient-1">
            <stop stop-color="#009EFF" offset="0%"></stop>
            <stop stop-color="#00DDFF" offset="100%"></stop>
        </linearGradient>
        <linearGradient x1="81.2909232%" y1="50%" x2="17.4988966%" y2="50%" id="linearGradient-2">
            <stop stop-color="#009EFF" offset="0%"></stop>
            <stop stop-color="#00DDFF" offset="100%"></stop>
        </linearGradient>
        <linearGradient x1="50%" y1="0%" x2="50%" y2="100%" id="linearGradient-3">
            <stop stop-color="#009EFF" offset="0%"></stop>
            <stop stop-color="#00DDFF" offset="100%"></stop>
        </linearGradient>
    </defs>
    <g id="Page-1" stroke="none" stroke-width="1" fill="none" fill-rule="evenodd">
        <g id="ic_play_arrow_black_24px">
            <rect id="24x24" fill="#000000" opacity="0" x="0" y="0" width="24" height="24"></rect>
            <g id="Shade" transform="translate(5.333333, 5.333333)">
                <polygon id="right" fill="url(#linearGradient-1)" points="13.3333333 0 13.3333333 8.66666667 8.66666667 13.3333333 8.66666667 4.66666667"></polygon>
                <polygon id="top" fill="url(#linearGradient-2)" points="4.66666667 0 13.3333333 0 8.66666667 4.66666667 0 4.66666667"></polygon>
                <rect id="front" fill="url(#linearGradient-3)" x="0" y="4.66666667" width="8.66666667" height="8.66666667"></rect>
            </g>
            <g id="ThinMesh" transform="translate(5.000000, 5.333333)" stroke="#FFFFFF" stroke-width="0.2">
                <polygon id="right" points="13.6666667 8.8817842e-16 13.6666667 8.66666667 9 13.3333333 9 4.66666667"></polygon>
                <polygon id="top" points="5 8.8817842e-16 13.6666667 8.8817842e-16 9 4.66666667 0.333333333 4.66666667"></polygon>
                <rect id="front" x="0.329999924" y="4.66666667" width="8.66666667" height="8.66666667"></rect>
            </g>
        </g>
    </g>
</svg>