<?xml version="1.0" encoding="UTF-8" standalone="no"?>
<svg width="24px" height="24px" viewBox="0 0 24 24" version="1.1" xmlns="http://www.w3.org/2000/svg" xmlns:xlink="http://www.w3.org/1999/xlink" xmlns:sketch="http://www.bohemiancoding.com/sketch/ns">
    <!-- Generator: Sketch 3.4.4 (17249) - http://www.bohemiancoding.com/sketch -->
    <title>Point White</title>
    <desc>Created with Sketch.</desc>
    <defs></defs>
    <g id="Page-1" stroke="none" stroke-width="1" fill="none" fill-rule="evenodd" sketch:type="MSPage">
        <g id="Point-White" sketch:type="MSArtboardGroup">
            <rect id="24x24" opacity="0" fill="#000000" sketch:type="MSShapeGroup" x="0" y="0" width="24" height="24"></rect>
            <g id="Corners" sketch:type="MSLayerGroup" transform="translate(1.000000, 1.000000)" fill="#FFFFFF">
                <circle id="PointBFR" sketch:type="MSShapeGroup" cx="13.5" cy="20.5" r="1"></circle>
                <circle id="PointBBR" sketch:type="MSShapeGroup" cx="20.5" cy="13.5" r="1"></circle>
                <circle id="PointTBR" sketch:type="MSShapeGroup" cx="20.5" cy="1.5" r="1"></circle>
                <circle id="PointTBL" sketch:type="MSShapeGroup" cx="8.5" cy="1.5" r="1"></circle>
                <circle id="PointTFL" sketch:type="MSShapeGroup" cx="1.5" cy="8.5" r="1"></circle>
                <circle id="PointTFR" sketch:type="MSShapeGroup" cx="13.5" cy="8.5" r="1"></circle>
                <circle id="PointBLB" sketch:type="MSShapeGroup" cx="8.5" cy="13.5" r="1"></circle>
                <path d="M1.5,21.5 C2.05228475,21.5 2.5,21.0522847 2.5,20.5 C2.5,19.9477153 2.05228475,19.5 1.5,19.5 C0.94771525,19.5 0.5,19.9477153 0.5,20.5 C0.5,21.0522847 0.94771525,21.5 1.5,21.5 Z" id="PointBLF" sketch:type="MSShapeGroup"></path>
            </g>
            <g id="thinMesh" sketch:type="MSLayerGroup" transform="translate(2.000000, 2.000000)" stroke="#FFFFFF" stroke-width="0.2">
                <polygon id="top" sketch:type="MSShapeGroup" points="7.5 0.5 19.5 0.5 12.5 7.5 0.5 7.5 "></polygon>
                <polygon id="bottom" sketch:type="MSShapeGroup" points="7.5 12.5 19.5 12.5 12.5 19.5 0.5 19.5 "></polygon>
                <rect id="front" sketch:type="MSShapeGroup" x="0.5" y="7.5" width="12" height="12"></rect>
                <rect id="back" sketch:type="MSShapeGroup" x="7.5" y="0.5" width="12" height="12"></rect>
            </g>
        </g>
    </g>
</svg>