<?xml version="1.0" encoding="UTF-8"?>
<svg width="24px" height="24px" viewBox="0 0 24 24" version="1.1" xmlns="http://www.w3.org/2000/svg" xmlns:xlink="http://www.w3.org/1999/xlink">
    <!-- Generator: Sketch 41.2 (35397) - http://www.bohemiancoding.com/sketch -->
    <title>Shape</title>
    <desc>Created with Sketch.</desc>
    <defs>
        <linearGradient x1="50%" y1="19.4792897%" x2="50%" y2="86.5814707%" id="linearGradient-1">
            <stop stop-color="#009EFF" offset="0%"></stop>
            <stop stop-color="#00DDFF" offset="100%"></stop>
        </linearGradient>
        <linearGradient x1="81.2909232%" y1="50%" x2="17.4988966%" y2="50%" id="linearGradient-2">
            <stop stop-color="#009EFF" offset="0%"></stop>
            <stop stop-color="#00DDFF" offset="100%"></stop>
        </linearGradient>
        <linearGradient x1="50%" y1="0%" x2="50%" y2="100%" id="linearGradient-3">
            <stop stop-color="#009EFF" offset="0%"></stop>
            <stop stop-color="#00DDFF" offset="100%"></stop>
        </linearGradient>
    </defs>
    <g id="Page-1" stroke="none" stroke-width="1" fill="none" fill-rule="evenodd">
        <g id="ic_all_out_black_24px">
            <polygon id="Shape" points="0 0 24 0 24 24 8.60422844e-16 24"></polygon>
            <g id="Group" transform="translate(4.000000, 4.000000)">
                <g id="Shade" transform="translate(0.380952, 0.380952)">
                    <polygon id="right" fill="url(#linearGradient-1)" points="15.2380952 0 15.2380952 9.9047619 9.9047619 15.2380952 9.9047619 5.33333333"></polygon>
                    <polygon id="top" fill="url(#linearGradient-2)" points="5.33333333 0 15.2380952 0 9.9047619 5.33333333 0 5.33333333"></polygon>
                    <rect id="front" fill="url(#linearGradient-3)" x="0" y="5.33333333" width="9.9047619" height="9.9047619"></rect>
                </g>
                <g id="ThinMesh" transform="translate(0.000000, 0.380952)" stroke="#FFFFFF" stroke-width="0.2">
                    <polygon id="right" points="15.6190476 0 15.6190476 9.9047619 10.2857143 15.2380952 10.2857143 5.33333333"></polygon>
                    <polygon id="top" points="5.71428571 0 15.6190476 0 10.2857143 5.33333333 0.380952381 5.33333333"></polygon>
                    <rect id="front" x="0.380952381" y="5.33333333" width="9.9047619" height="9.9047619"></rect>
                </g>
            </g>
        </g>
    </g>
</svg>