<?xml version="1.0" encoding="UTF-8" standalone="no"?>
<svg width="24px" height="24px" viewBox="0 0 24 24" version="1.1" xmlns="http://www.w3.org/2000/svg" xmlns:xlink="http://www.w3.org/1999/xlink" xmlns:sketch="http://www.bohemiancoding.com/sketch/ns">
    <!-- Generator: Sketch 3.4.4 (17249) - http://www.bohemiancoding.com/sketch -->
    <title>Transparent White</title>
    <desc>Created with Sketch.</desc>
    <defs>
        <linearGradient x1="67.6691776%" y1="0%" x2="34.4181172%" y2="100%" id="linearGradient-1">
            <stop stop-color="#009EFF" offset="0%"></stop>
            <stop stop-color="#00DAFF" offset="95.3149654%"></stop>
            <stop stop-color="#00DAFF" offset="95.3149654%"></stop>
            <stop stop-color="#00DDFF" offset="100%"></stop>
        </linearGradient>
        <linearGradient x1="50%" y1="18.0726428%" x2="50%" y2="81.6340634%" id="linearGradient-2">
            <stop stop-color="#009EFF" offset="0%"></stop>
            <stop stop-color="#00DDFF" offset="100%"></stop>
        </linearGradient>
        <linearGradient x1="50%" y1="0%" x2="50%" y2="100%" id="linearGradient-3">
            <stop stop-color="#009EFF" offset="0%"></stop>
            <stop stop-color="#00DDFF" offset="100%"></stop>
        </linearGradient>
        <linearGradient x1="50%" y1="18.526134%" x2="50%" y2="81.9019643%" id="linearGradient-4">
            <stop stop-color="#009EFF" offset="0%"></stop>
            <stop stop-color="#00CFFF" offset="77.444446%"></stop>
            <stop stop-color="#00DDFF" offset="100%"></stop>
        </linearGradient>
        <linearGradient x1="81.8396874%" y1="50%" x2="18.5335136%" y2="50%" id="linearGradient-5">
            <stop stop-color="#009EFF" offset="0%"></stop>
            <stop stop-color="#00DDFF" offset="100%"></stop>
        </linearGradient>
    </defs>
    <g id="Page-1" stroke="none" stroke-width="1" fill="none" fill-rule="evenodd" sketch:type="MSPage">
        <g id="Transparent-White" sketch:type="MSArtboardGroup">
            <rect id="24x24" opacity="0" fill="#000000" sketch:type="MSShapeGroup" x="0" y="0" width="24" height="24"></rect>
            <g id="transShade" sketch:type="MSLayerGroup" transform="translate(2.000000, 2.000000)" opacity="0.3">
                <polygon id="bottom" fill="url(#linearGradient-1)" sketch:type="MSShapeGroup" points="7 13 20 13 13 20 0 20 "></polygon>
                <polygon id="left" fill="url(#linearGradient-2)" sketch:type="MSShapeGroup" points="7 0 7 13 0 20 0 7 "></polygon>
                <rect id="back" fill="url(#linearGradient-3)" sketch:type="MSShapeGroup" x="7" y="0" width="13" height="13"></rect>
                <polygon id="right" fill="url(#linearGradient-4)" sketch:type="MSShapeGroup" points="20 0 20 13 13 20 13 7 "></polygon>
                <polygon id="top" fill="url(#linearGradient-5)" sketch:type="MSShapeGroup" points="7 0 20 0 13 7 0 7 "></polygon>
                <rect id="front" fill="url(#linearGradient-3)" sketch:type="MSShapeGroup" x="0" y="7" width="13" height="13"></rect>
            </g>
            <g id="thinMesh" sketch:type="MSLayerGroup" transform="translate(1.500000, 2.000000)" stroke="#FFFFFF" stroke-width="0.2">
                <polygon id="right" sketch:type="MSShapeGroup" points="20.5 0 20.5 13 13.5 20 13.5 7 "></polygon>
                <polygon id="top" sketch:type="MSShapeGroup" points="7.5 0 20.5 0 13.5 7 0.5 7 "></polygon>
                <polygon id="bottom" sketch:type="MSShapeGroup" points="7.5 13 20.5 13 13.5 20 0.5 20 "></polygon>
                <rect id="front" sketch:type="MSShapeGroup" x="0.5" y="7" width="13" height="13"></rect>
                <rect id="back" sketch:type="MSShapeGroup" x="7.5" y="0" width="13" height="13"></rect>
            </g>
        </g>
    </g>
</svg>