<?xml version="1.0" encoding="UTF-8" standalone="no"?>
<svg width="24px" height="24px" viewBox="0 0 24 24" version="1.1" xmlns="http://www.w3.org/2000/svg" xmlns:xlink="http://www.w3.org/1999/xlink" xmlns:sketch="http://www.bohemiancoding.com/sketch/ns">
    <!-- Generator: Sketch 3.4.4 (17249) - http://www.bohemiancoding.com/sketch -->
    <title>Wireframe White</title>
    <desc>Created with Sketch.</desc>
    <defs></defs>
    <g id="Page-1" stroke="none" stroke-width="1" fill="none" fill-rule="evenodd" sketch:type="MSPage">
        <g id="Wireframe-White" sketch:type="MSArtboardGroup">
            <rect id="24x24" opacity="0" fill="#000000" sketch:type="MSShapeGroup" x="0" y="0" width="24" height="24"></rect>
            <g id="Mesh" sketch:type="MSLayerGroup" transform="translate(2.000000, 2.000000)" stroke="#FFFFFF">
                <polygon id="bottom" stroke-width="0.5" sketch:type="MSShapeGroup" points="7 13 20 13 13 20 0 20 "></polygon>
                <polygon id="left" stroke-width="0.5" sketch:type="MSShapeGroup" points="7 0 7 13 0 20 0 7 "></polygon>
                <rect id="back" stroke-width="0.5" sketch:type="MSShapeGroup" x="7" y="0" width="13" height="13"></rect>
                <polygon id="right" stroke-width="0.5" sketch:type="MSShapeGroup" points="20 0 20 13 13 20 13 7 "></polygon>
                <polygon id="top" stroke-width="0.5" sketch:type="MSShapeGroup" points="7 0 20 0 13 7 0 7 "></polygon>
                <rect id="front" stroke-width="0.5" sketch:type="MSShapeGroup" x="0" y="7" width="13" height="13"></rect>
                <polygon id="outline" sketch:type="MSShapeGroup" points="7 0 20 0 20 13 13 20 0 20 0 7 "></polygon>
            </g>
        </g>
    </g>
</svg>