<?xml version="1.0" encoding="UTF-8" standalone="no"?>
<svg width="20px" height="20px" viewBox="0 0 20 20" version="1.1" xmlns="http://www.w3.org/2000/svg" xmlns:xlink="http://www.w3.org/1999/xlink">
    <!-- Generator: Sketch 41.2 (35397) - http://www.bohemiancoding.com/sketch -->
    <title>ic_my_location_black_24px</title>
    <desc>Created with Sketch.</desc>
    <defs>
        <linearGradient x1="50%" y1="0%" x2="50%" y2="100%" id="linearGradient-1">
            <stop stop-color="#009EFF" offset="0%"></stop>
            <stop stop-color="#00DDFF" offset="100%"></stop>
        </linearGradient>
    </defs>
    <g id="Page-1" stroke="none" stroke-width="1" fill="none" fill-rule="evenodd">
        <g id="CAE-Animation-Copy" transform="translate(-423.000000, -676.000000)">
            <g id="ic_my_location_black_24px" transform="translate(421.000000, 674.000000)">
                <g id="Group">
                    <polygon id="Shape" points="0 0 24 0 24 24 0 24"></polygon>
                    <path d="M20.1272727,11.0909091 C19.7090909,7.3 16.7,4.29090909 12.9090909,3.87272727 L12.9090909,2 L11.0909091,2 L11.0909091,3.87272727 C7.3,4.29090909 4.29090909,7.3 3.87272727,11.0909091 L2,11.0909091 L2,12.9090909 L3.87272727,12.9090909 C4.29090909,16.7 7.3,19.7090909 11.0909091,20.1272727 L11.0909091,22 L12.9090909,22 L12.9090909,20.1272727 C16.7,19.7090909 19.7090909,16.7 20.1272727,12.9090909 L22,12.9090909 L22,11.0909091 L20.1272727,11.0909091 L20.1272727,11.0909091 Z M12,18.3636364 C8.48181818,18.3636364 5.63636364,15.5181818 5.63636364,12 C5.63636364,8.48181818 8.48181818,5.63636364 12,5.63636364 C15.5181818,5.63636364 18.3636364,8.48181818 18.3636364,12 C18.3636364,15.5181818 15.5181818,18.3636364 12,18.3636364 Z" id="Shape" fill="#FFFFFF"></path>
                    <circle id="Oval-1-Copy-2" stroke="#000000" stroke-width="0.1" fill="url(#linearGradient-1)" cx="12" cy="12" r="2"></circle>
                </g>
            </g>
        </g>
    </g>
</svg>