<?xml version="1.0" encoding="UTF-8" standalone="no"?>
<svg width="24px" height="24px" viewBox="0 0 24 24" version="1.1" xmlns="http://www.w3.org/2000/svg" xmlns:xlink="http://www.w3.org/1999/xlink">
    <!-- Generator: Sketch 41.2 (35397) - http://www.bohemiancoding.com/sketch -->
    <title>Shape</title>
    <desc>Created with Sketch.</desc>
    <defs>
        <linearGradient x1="50%" y1="0%" x2="50%" y2="100%" id="linearGradient-1">
            <stop stop-color="#009EFF" offset="0%"></stop>
            <stop stop-color="#00DDFF" offset="100%"></stop>
        </linearGradient>
    </defs>
    <g id="Page-1" stroke="none" stroke-width="1" fill="none" fill-rule="evenodd">
        <g id="ic_settings_backup_restore_black_24px">
            <polygon id="Shape" points="0 0 24 0 24 24 0 24"></polygon>
            <path d="M14,12 C14,10.9 13.1,10 12,10 C10.9,10 10,10.9 10,12 C10,13.1 10.9,14 12,14 C13.1,14 14,13.1 14,12 Z M12,3 C7.03,3 3,7.03 3,12 L0,12 L4,16 L8,12 L5,12 C5,8.13 8.13,5 12,5 C15.87,5 19,8.13 19,12 C19,15.87 15.87,19 12,19 C10.49,19 9.09,18.51 7.94,17.7 L6.52,19.14 C8.04,20.3 9.94,21 12,21 C16.97,21 21,16.97 21,12 C21,7.03 16.97,3 12,3 Z" id="Shape" fill="#FFFFFF"></path>
            <circle id="Oval-1" fill="url(#linearGradient-1)" cx="12" cy="12" r="2"></circle>
        </g>
    </g>
</svg>