<?xml version="1.0" encoding="UTF-8"?>
<svg width="30px" height="16px" viewBox="0 0 30 16" version="1.1" xmlns="http://www.w3.org/2000/svg" xmlns:xlink="http://www.w3.org/1999/xlink">
    <!-- Generator: Sketch 42 (36781) - http://www.bohemiancoding.com/sketch -->
    <title>VCollabShadedLogo</title>
    <desc>Created with Sketch.</desc>
    <defs>
        <path d="M11.0633333,5.13309524 L9.01642857,9.0197619 L12.4728571,15.6264286 L16.5754762,15.6264286 L11.0633333,5.13309524 Z M8.32214286,0.0207142857 L0.0683333333,15.6264286 L4.17,15.6264286 L10.3919048,3.86380952 L8.32214286,0.0207142857 L8.32214286,0.0207142857 Z" id="path-1"></path>
        <path d="M8.24261905,11.4247619 C8.98380952,11.2366667 9.52166667,11.0383333 9.85404762,10.8297619 L9.85404762,10.8297619 C10.1869048,10.6209524 10.5885714,10.2266667 11.0602381,9.6497619 L11.0602381,9.6497619 L13.8052381,11.7802381 C12.3771429,13.5830952 10.522619,14.6064286 8.24261905,14.8509524 L8.24261905,14.8509524 L8.24261905,11.4247619 L8.24261905,11.4247619 Z M1.98285714,12.3221429 C0.73547619,10.9280952 0.111428571,9.30214286 0.111428571,7.44285714 L0.111428571,7.44285714 C0.111428571,5.31404762 0.790238095,3.61095238 2.14880952,2.335 L2.14880952,2.335 C3.07142857,1.4747619 4.0897619,0.857142857 5.20619048,0.482619048 L5.20619048,0.482619048 C5.75357143,0.302857143 6.38785714,0.167857143 7.10928571,0.0776190476 L7.10928571,0.0776190476 L7.10928571,3.47952381 C6.05142857,3.75666667 5.2152381,4.21761905 4.60047619,4.86261905 L4.60047619,4.86261905 C3.93690476,5.5697619 3.605,6.43047619 3.605,7.44285714 L3.605,7.44285714 C3.605,7.90809524 3.6847619,8.35857143 3.84380952,8.79547619 L3.84380952,8.79547619 C4.34095238,10.1342857 5.42904762,11.0183333 7.10928571,11.4488095 L7.10928571,11.4488095 L7.10928571,14.8509524 C4.93880952,14.5592857 3.23095238,13.7169048 1.98285714,12.3221429 L1.98285714,12.3221429 Z M9.90595238,4.06690476 C9.59428571,3.86571429 9.03904762,3.67547619 8.24261905,3.49571429 L8.24261905,3.49571429 L8.24261905,0.0776190476 C9.83,0.375238095 10.9435714,0.71547619 11.5857143,1.10047619 L11.5857143,1.10047619 C12.2264286,1.4852381 12.9804762,2.17571429 13.8469048,3.17309524 L13.8469048,3.17309524 L11.0497619,5.26142857 C10.5642857,4.63785714 10.1830952,4.24 9.90595238,4.06690476 L9.90595238,4.06690476 Z" id="path-3"></path>
        <polygon id="path-5" points="0.0176190476 0.0478571429 4.41714286 0.0478571429 4.41714286 4.40452381 0.0176190476 4.40452381"></polygon>
    </defs>
    <g id="Page-1" stroke="none" stroke-width="1" fill="none" fill-rule="evenodd" opacity="0.9">
        <g id="CAE-Animation-Copy-4" transform="translate(-12.000000, -11.000000)">
            <g id="Group-11" transform="translate(12.000000, 10.000000)">
                <g id="Group-12">
                    <g id="VCollabShadedLogo">
                        <g id="g10" transform="translate(15.000000, 8.500000) scale(1, -1) translate(-15.000000, -8.500000) ">
                            <g id="g62" transform="translate(0.095238, 0.190476)">
                                <g id="g64-Clipped">
                                    <mask id="mask-2" fill="white">
                                        <use xlink:href="#path-1"></use>
                                    </mask>
                                    <g id="path68"></g>
                                    <g id="g64" mask="url(#mask-2)" fill="#FFFFFF">
                                        <g id="g70">
                                            <g id="g72">
                                                <path d="M11.0633333,5.13309524 L9.01642857,9.0197619 L12.4728571,15.6264286 L16.5754762,15.6264286 L11.0633333,5.13309524 Z M8.32214286,0.0207142857 L0.0683333333,15.6264286 L4.17,15.6264286 L10.3919048,3.86380952 L8.32214286,0.0207142857 L8.32214286,0.0207142857 Z" id="path84"></path>
                                            </g>
                                        </g>
                                    </g>
                                </g>
                            </g>
                            <g id="g90" transform="translate(15.333333, 0.666667)">
                                <g id="g92-Clipped">
                                    <mask id="mask-4" fill="white">
                                        <use xlink:href="#path-3"></use>
                                    </mask>
                                    <g id="path96"></g>
                                    <g id="g92" mask="url(#mask-4)" fill="#FFFFFF">
                                        <g id="g98">
                                            <path d="M8.24261905,11.4247619 C8.98380952,11.2366667 9.52166667,11.0383333 9.85404762,10.8297619 L9.85404762,10.8297619 C10.1869048,10.6209524 10.5885714,10.2266667 11.0602381,9.6497619 L11.0602381,9.6497619 L13.8052381,11.7802381 C12.3771429,13.5830952 10.522619,14.6064286 8.24261905,14.8509524 L8.24261905,14.8509524 L8.24261905,11.4247619 L8.24261905,11.4247619 Z M1.98285714,12.3221429 C0.73547619,10.9280952 0.111428571,9.30214286 0.111428571,7.44285714 L0.111428571,7.44285714 C0.111428571,5.31404762 0.790238095,3.61095238 2.14880952,2.335 L2.14880952,2.335 C3.07142857,1.4747619 4.0897619,0.857142857 5.20619048,0.482619048 L5.20619048,0.482619048 C5.75357143,0.302857143 6.38785714,0.167857143 7.10928571,0.0776190476 L7.10928571,0.0776190476 L7.10928571,3.47952381 C6.05142857,3.75666667 5.2152381,4.21761905 4.60047619,4.86261905 L4.60047619,4.86261905 C3.93690476,5.5697619 3.605,6.43047619 3.605,7.44285714 L3.605,7.44285714 C3.605,7.90809524 3.6847619,8.35857143 3.84380952,8.79547619 L3.84380952,8.79547619 C4.34095238,10.1342857 5.42904762,11.0183333 7.10928571,11.4488095 L7.10928571,11.4488095 L7.10928571,14.8509524 C4.93880952,14.5592857 3.23095238,13.7169048 1.98285714,12.3221429 L1.98285714,12.3221429 Z M9.90595238,4.06690476 C9.59428571,3.86571429 9.03904762,3.67547619 8.24261905,3.49571429 L8.24261905,3.49571429 L8.24261905,0.0776190476 C9.83,0.375238095 10.9435714,0.71547619 11.5857143,1.10047619 L11.5857143,1.10047619 C12.2264286,1.4852381 12.9804762,2.17571429 13.8469048,3.17309524 L13.8469048,3.17309524 L11.0497619,5.26142857 C10.5642857,4.63785714 10.1830952,4.24 9.90595238,4.06690476 L9.90595238,4.06690476 Z" id="path110"></path>
                                        </g>
                                    </g>
                                </g>
                            </g>
                            <g id="g294" transform="translate(20.761905, 5.904762)">
                                <g id="g296-Clipped">
                                    <mask id="mask-6" fill="white">
                                        <use xlink:href="#path-5"></use>
                                    </mask>
                                    <g id="path300"></g>
                                    <g id="g296" mask="url(#mask-6)" fill-opacity="0.7">
                                        <g transform="translate(-0.190476, -0.238095)" id="g302">
                                            <g transform="translate(0.059881, 0.161357)">
                                                <path d="M4.28571429,3.33333333 C3.71119048,4.39309524 2.37785714,4.79095238 1.30738095,4.22190476 C0.237380952,3.65285714 -0.164285714,2.33238095 0.41047619,1.27285714 C0.985,0.213333333 2.31833333,-0.184761905 3.38833333,0.383809524 C4.45857143,0.953333333 4.86047619,2.27357143 4.28571429,3.33333333" id="path304" fill="#FF0000"></path>
                                            </g>
                                        </g>
                                    </g>
                                </g>
                            </g>
                        </g>
                    </g>
                </g>
            </g>
        </g>
    </g>
</svg>