<?xml version="1.0" encoding="UTF-8"?>
<svg width="119px" height="16px" viewBox="0 0 119 16" version="1.1" xmlns="http://www.w3.org/2000/svg" xmlns:xlink="http://www.w3.org/1999/xlink">
    <!-- Generator: Sketch 42 (36781) - http://www.bohemiancoding.com/sketch -->
    <title>Group 11</title>
    <desc>Created with Sketch.</desc>
    <defs>
        <path d="M11.0633333,5.13309524 L9.01642857,9.0197619 L12.4728571,15.6264286 L16.5754762,15.6264286 L11.0633333,5.13309524 Z M8.32214286,0.0207142857 L0.0683333333,15.6264286 L4.17,15.6264286 L10.3919048,3.86380952 L8.32214286,0.0207142857 L8.32214286,0.0207142857 Z" id="path-1"></path>
        <path d="M8.24261905,11.4247619 C8.98380952,11.2366667 9.52166667,11.0383333 9.85404762,10.8297619 L9.85404762,10.8297619 C10.1869048,10.6209524 10.5885714,10.2266667 11.0602381,9.6497619 L11.0602381,9.6497619 L13.8052381,11.7802381 C12.3771429,13.5830952 10.522619,14.6064286 8.24261905,14.8509524 L8.24261905,14.8509524 L8.24261905,11.4247619 L8.24261905,11.4247619 Z M1.98285714,12.3221429 C0.73547619,10.9280952 0.111428571,9.30214286 0.111428571,7.44285714 L0.111428571,7.44285714 C0.111428571,5.31404762 0.790238095,3.61095238 2.14880952,2.335 L2.14880952,2.335 C3.07142857,1.4747619 4.0897619,0.857142857 5.20619048,0.482619048 L5.20619048,0.482619048 C5.75357143,0.302857143 6.38785714,0.167857143 7.10928571,0.0776190476 L7.10928571,0.0776190476 L7.10928571,3.47952381 C6.05142857,3.75666667 5.2152381,4.21761905 4.60047619,4.86261905 L4.60047619,4.86261905 C3.93690476,5.5697619 3.605,6.43047619 3.605,7.44285714 L3.605,7.44285714 C3.605,7.90809524 3.6847619,8.35857143 3.84380952,8.79547619 L3.84380952,8.79547619 C4.34095238,10.1342857 5.42904762,11.0183333 7.10928571,11.4488095 L7.10928571,11.4488095 L7.10928571,14.8509524 C4.93880952,14.5592857 3.23095238,13.7169048 1.98285714,12.3221429 L1.98285714,12.3221429 Z M9.90595238,4.06690476 C9.59428571,3.86571429 9.03904762,3.67547619 8.24261905,3.49571429 L8.24261905,3.49571429 L8.24261905,0.0776190476 C9.83,0.375238095 10.9435714,0.71547619 11.5857143,1.10047619 L11.5857143,1.10047619 C12.2264286,1.4852381 12.9804762,2.17571429 13.8469048,3.17309524 L13.8469048,3.17309524 L11.0497619,5.26142857 C10.5642857,4.63785714 10.1830952,4.24 9.90595238,4.06690476 L9.90595238,4.06690476 Z" id="path-3"></path>
        <path d="M1.82690476,9.21833333 C0.81547619,8.32761905 0.208333333,7.01309524 0.208333333,5.33380952 L0.208333333,5.33380952 L0.208333333,5.31404762 C0.208333333,3.89761905 0.653809524,2.74404762 1.40214286,1.87428571 L1.40214286,1.87428571 C2.43357143,0.680714286 4.09285714,0.054047619 5.99452381,0.054047619 L5.99452381,0.054047619 C7.85547619,0.054047619 9.5147619,0.680714286 10.5459524,1.87428571 L10.5459524,1.87428571 C11.2947619,2.74404762 11.7402381,3.89761905 11.7402381,5.33380952 L11.7402381,5.33380952 C11.7402381,7.01309524 11.1333333,8.32761905 10.1211905,9.21833333 L10.1211905,9.21833333 C9.0897619,10.1483333 7.61238095,10.6138095 5.99452381,10.6138095 L5.99452381,10.6138095 C4.33571429,10.6138095 2.85904762,10.1483333 1.82690476,9.21833333 M4.11309524,3.33142857 C3.74880952,3.83690476 3.56714286,4.5247619 3.56714286,5.35404762 L3.56714286,5.35404762 C3.56714286,6.16404762 3.74880952,6.85119048 4.13333333,7.35714286 L4.13333333,7.35714286 C4.53738095,7.88285714 5.165,8.20690476 5.99452381,8.20690476 L5.99452381,8.20690476 C6.80404762,8.20690476 7.41071429,7.90357143 7.835,7.35714286 L7.835,7.35714286 C8.19928571,6.85119048 8.40214286,6.16404762 8.40214286,5.35404762 L8.40214286,5.35404762 C8.40214286,4.505 8.19928571,3.79642857 7.815,3.31095238 L7.815,3.31095238 C7.43095238,2.76452381 6.80404762,2.46166667 5.99452381,2.46166667 L5.99452381,2.46166667 C5.145,2.46166667 4.51714286,2.78452381 4.11309524,3.33142857" id="path-5"></path>
        <polygon id="path-7" points="0.186904762 13.5516667 0.186904762 9.54642857 0.186904762 6.10714286 0.186904762 0.0585714286 3.525 0.0585714286 3.525 4.40785714 3.525 8.23095238 3.525 13.5516667"></polygon>
        <polygon id="path-9" points="0.000476190477 13.5516667 0.000476190477 9.54642857 0.000476190477 6.10714286 0.000476190477 0.0585714286 3.33785714 0.0585714286 3.33785714 4.40785714 3.33785714 8.23095238 3.33785714 13.5516667"></polygon>
        <path d="M3.88166667,10.4528571 C3.07190476,10.3504762 2.30357143,10.1888095 1.5147619,10.007381 L1.5147619,10.007381 L1.27190476,7.82190476 C1.91809524,8.065 2.60642857,8.30809524 3.3147619,8.46904762 L3.3147619,8.46904762 C3.98309524,8.63166667 4.6497619,8.73214286 5.31833333,8.73214286 L5.31833333,8.73214286 C5.62119048,8.73214286 5.9852381,8.69261905 6.28904762,8.55071429 L6.28904762,8.55071429 C6.61261905,8.42928571 6.87595238,8.16666667 6.87595238,7.70095238 L6.87595238,7.70095238 C6.87595238,6.97261905 5.86404762,6.70952381 4.62928571,6.44642857 L4.62928571,6.44642857 C3.53761905,6.20357143 2.28380952,5.9402381 1.37285714,5.3747619 L1.37285714,5.3747619 C0.624047619,4.88857143 0.0985714286,4.20119048 0.0985714286,3.10857143 L0.0985714286,3.10857143 C0.0985714286,2.19833333 0.421904762,1.4702381 0.989047619,0.96452381 L0.989047619,0.96452381 C1.65642857,0.357857143 2.66738095,0.054047619 3.92214286,0.054047619 L3.92214286,0.054047619 C4.36690476,0.054047619 5.07595238,0.155 5.64214286,0.195238095 L5.64214286,0.195238095 L6.14738095,2.17785714 C5.72214286,2.03619048 5.29809524,1.935 4.83261905,1.935 L4.83261905,1.935 C4.46833333,1.935 4.08404762,1.99619048 3.80071429,2.17785714 L3.80071429,2.17785714 C3.53761905,2.31952381 3.37571429,2.58261905 3.37571429,2.94690476 L3.37571429,2.94690476 C3.37571429,3.75666667 4.22571429,4.1402381 5.1352381,4.44380952 L5.1352381,4.44380952 C5.84357143,4.66642857 6.61261905,4.86880952 6.99738095,5.15190476 L6.99738095,5.15190476 L6.99738095,2.62333333 L6.99738095,0.296666667 L10.2733333,0.296666667 L10.2733333,3.73571429 L10.2733333,7.90357143 C10.2733333,8.67190476 9.99071429,9.38 9.30285714,9.86547619 L9.30285714,9.86547619 C8.57428571,10.3714286 7.44190476,10.6138095 6.12714286,10.6138095 L6.12714286,10.6138095 C5.37857143,10.6138095 4.6102381,10.5530952 3.88166667,10.4528571" id="path-11"></path>
        <path d="M0.0357142857,13.7897619 L0.0357142857,9.76428571 L0.0357142857,6.14333333 L0.0357142857,0.296666667 L3.19380952,0.296666667 L3.15261905,1.75333333 L3.19380952,1.71285714 C3.96119048,0.600238095 5.115,0.054047619 6.69357143,0.054047619 L6.69357143,0.054047619 C8.1702381,0.054047619 9.22261905,0.640952381 9.95071429,1.51095238 L9.95071429,1.51095238 C10.7583333,2.52166667 11.1230952,3.89761905 11.1230952,5.21285714 L11.1230952,5.21285714 C11.1230952,7.13452381 10.5571429,8.42928571 9.66738095,9.25880952 L9.66738095,9.25880952 C8.47309524,10.3911905 6.77380952,10.6138095 5.57952381,10.6138095 L5.57952381,10.6138095 C5.29714286,10.6138095 4.89214286,10.5935714 4.46714286,10.5133333 L4.46714286,10.5133333 C4.10285714,10.4728571 3.73833333,10.3911905 3.3752381,10.3111905 L3.3752381,10.3111905 L3.3752381,12.1316667 L3.3752381,13.7897619 L0.0357142857,13.7897619 L0.0357142857,13.7897619 Z M3.3752381,4.96952381 L3.3752381,7.92333333 C3.61714286,7.98452381 3.84071429,8.065 4.08452381,8.10547619 L4.08452381,8.10547619 C4.22428571,8.14595238 4.40666667,8.16666667 4.56738095,8.20690476 L4.56738095,8.20690476 C4.6897619,8.20690476 4.81119048,8.22690476 4.93261905,8.22690476 L4.93261905,8.22690476 C5.03380952,8.24690476 5.115,8.24690476 5.21666667,8.24690476 L5.21666667,8.24690476 C6.06595238,8.24690476 6.73309524,7.92333333 7.15857143,7.37690476 L7.15857143,7.37690476 C7.56261905,6.87142857 7.78547619,6.14333333 7.78547619,5.27309524 L7.78547619,5.27309524 C7.78547619,4.68666667 7.64380952,3.91738095 7.2602381,3.31095238 L7.2602381,3.31095238 C6.93547619,2.80571429 6.41,2.42119048 5.6602381,2.42119048 L5.6602381,2.42119048 C4.22428571,2.42119048 3.3752381,3.77619048 3.3752381,4.96952381 L3.3752381,4.96952381 Z" id="path-13"></path>
        <polygon id="path-15" points="0.0176190476 0.0478571429 4.41714286 0.0478571429 4.41714286 4.40452381 0.0176190476 4.40452381"></polygon>
    </defs>
    <g id="Page-1" stroke="none" stroke-width="1" fill="none" fill-rule="evenodd">
        <g id="CAE-Animation-Copy-2" transform="translate(-5.000000, -11.000000)">
            <g id="Group-11" transform="translate(5.000000, 10.000000)">
                <g id="Group-12">
                    <g id="VCollabShadedLogo">
                        <g id="g10" transform="translate(39.500000, 8.500000) scale(1, -1) translate(-39.500000, -8.500000) ">
                            <g id="g62" transform="translate(0.095238, 0.190476)">
                                <g id="g64-Clipped">
                                    <mask id="mask-2" fill="white">
                                        <use xlink:href="#path-1"></use>
                                    </mask>
                                    <g id="path68"></g>
                                    <g id="g64" mask="url(#mask-2)" fill="#FFFFFF">
                                        <g id="g70">
                                            <g id="g72">
                                                <path d="M11.0633333,5.13309524 L9.01642857,9.0197619 L12.4728571,15.6264286 L16.5754762,15.6264286 L11.0633333,5.13309524 Z M8.32214286,0.0207142857 L0.0683333333,15.6264286 L4.17,15.6264286 L10.3919048,3.86380952 L8.32214286,0.0207142857 L8.32214286,0.0207142857 Z" id="path84"></path>
                                            </g>
                                        </g>
                                    </g>
                                </g>
                            </g>
                            <g id="g90" transform="translate(15.333333, 0.666667)">
                                <g id="g92-Clipped">
                                    <mask id="mask-4" fill="white">
                                        <use xlink:href="#path-3"></use>
                                    </mask>
                                    <g id="path96"></g>
                                    <g id="g92" mask="url(#mask-4)" fill="#FFFFFF">
                                        <g id="g98">
                                            <path d="M8.24261905,11.4247619 C8.98380952,11.2366667 9.52166667,11.0383333 9.85404762,10.8297619 L9.85404762,10.8297619 C10.1869048,10.6209524 10.5885714,10.2266667 11.0602381,9.6497619 L11.0602381,9.6497619 L13.8052381,11.7802381 C12.3771429,13.5830952 10.522619,14.6064286 8.24261905,14.8509524 L8.24261905,14.8509524 L8.24261905,11.4247619 L8.24261905,11.4247619 Z M1.98285714,12.3221429 C0.73547619,10.9280952 0.111428571,9.30214286 0.111428571,7.44285714 L0.111428571,7.44285714 C0.111428571,5.31404762 0.790238095,3.61095238 2.14880952,2.335 L2.14880952,2.335 C3.07142857,1.4747619 4.0897619,0.857142857 5.20619048,0.482619048 L5.20619048,0.482619048 C5.75357143,0.302857143 6.38785714,0.167857143 7.10928571,0.0776190476 L7.10928571,0.0776190476 L7.10928571,3.47952381 C6.05142857,3.75666667 5.2152381,4.21761905 4.60047619,4.86261905 L4.60047619,4.86261905 C3.93690476,5.5697619 3.605,6.43047619 3.605,7.44285714 L3.605,7.44285714 C3.605,7.90809524 3.6847619,8.35857143 3.84380952,8.79547619 L3.84380952,8.79547619 C4.34095238,10.1342857 5.42904762,11.0183333 7.10928571,11.4488095 L7.10928571,11.4488095 L7.10928571,14.8509524 C4.93880952,14.5592857 3.23095238,13.7169048 1.98285714,12.3221429 L1.98285714,12.3221429 Z M9.90595238,4.06690476 C9.59428571,3.86571429 9.03904762,3.67547619 8.24261905,3.49571429 L8.24261905,3.49571429 L8.24261905,0.0776190476 C9.83,0.375238095 10.9435714,0.71547619 11.5857143,1.10047619 L11.5857143,1.10047619 C12.2264286,1.4852381 12.9804762,2.17571429 13.8469048,3.17309524 L13.8469048,3.17309524 L11.0497619,5.26142857 C10.5642857,4.63785714 10.1830952,4.24 9.90595238,4.06690476 L9.90595238,4.06690476 Z" id="path110"></path>
                                        </g>
                                    </g>
                                </g>
                            </g>
                            <g id="g124" transform="translate(29.380952, 0.666667)">
                                <g id="g126-Clipped">
                                    <mask id="mask-6" fill="white">
                                        <use xlink:href="#path-5"></use>
                                    </mask>
                                    <g id="path130"></g>
                                    <g id="g126" mask="url(#mask-6)" fill="#FFFFFF">
                                        <g id="g132">
                                            <path d="M1.82690476,9.21833333 C0.81547619,8.32761905 0.208333333,7.01309524 0.208333333,5.33380952 L0.208333333,5.33380952 L0.208333333,5.31404762 C0.208333333,3.89761905 0.653809524,2.74404762 1.40214286,1.87428571 L1.40214286,1.87428571 C2.43357143,0.680714286 4.09285714,0.054047619 5.99452381,0.054047619 L5.99452381,0.054047619 C7.85547619,0.054047619 9.5147619,0.680714286 10.5459524,1.87428571 L10.5459524,1.87428571 C11.2947619,2.74404762 11.7402381,3.89761905 11.7402381,5.33380952 L11.7402381,5.33380952 C11.7402381,7.01309524 11.1333333,8.32761905 10.1211905,9.21833333 L10.1211905,9.21833333 C9.0897619,10.1483333 7.61238095,10.6138095 5.99452381,10.6138095 L5.99452381,10.6138095 C4.33571429,10.6138095 2.85904762,10.1483333 1.82690476,9.21833333 M4.11309524,3.33142857 C3.74880952,3.83690476 3.56714286,4.5247619 3.56714286,5.35404762 L3.56714286,5.35404762 C3.56714286,6.16404762 3.74880952,6.85119048 4.13333333,7.35714286 L4.13333333,7.35714286 C4.53738095,7.88285714 5.165,8.20690476 5.99452381,8.20690476 L5.99452381,8.20690476 C6.80404762,8.20690476 7.41071429,7.90357143 7.835,7.35714286 L7.835,7.35714286 C8.19928571,6.85119048 8.40214286,6.16404762 8.40214286,5.35404762 L8.40214286,5.35404762 C8.40214286,4.505 8.19928571,3.79642857 7.815,3.31095238 L7.815,3.31095238 C7.43095238,2.76452381 6.80404762,2.46166667 5.99452381,2.46166667 L5.99452381,2.46166667 C5.145,2.46166667 4.51714286,2.78452381 4.11309524,3.33142857" id="path144"></path>
                                        </g>
                                    </g>
                                </g>
                            </g>
                            <g id="g158" transform="translate(42.714286, 0.904762)">
                                <g id="g160-Clipped">
                                    <mask id="mask-8" fill="white">
                                        <use xlink:href="#path-7"></use>
                                    </mask>
                                    <g id="path164"></g>
                                    <g id="g160" mask="url(#mask-8)" fill="#FFFFFF">
                                        <g id="g166">
                                            <polygon id="path178" points="0.186904762 13.5516667 0.186904762 9.54642857 0.186904762 6.10714286 0.186904762 0.0585714286 3.525 0.0585714286 3.525 4.40785714 3.525 8.23095238 3.525 13.5516667"></polygon>
                                        </g>
                                    </g>
                                </g>
                            </g>
                            <g id="g192" transform="translate(48.666667, 0.904762)">
                                <g id="g194-Clipped">
                                    <mask id="mask-10" fill="white">
                                        <use xlink:href="#path-9"></use>
                                    </mask>
                                    <g id="path198"></g>
                                    <g id="g194" mask="url(#mask-10)" fill="#FFFFFF">
                                        <g id="g200">
                                            <polygon id="path212" points="0.000476190477 13.5516667 0.000476190477 9.54642857 0.000476190477 6.10714286 0.000476190477 0.0585714286 3.33785714 0.0585714286 3.33785714 4.40785714 3.33785714 8.23095238 3.33785714 13.5516667"></polygon>
                                        </g>
                                    </g>
                                </g>
                            </g>
                            <g id="g226" transform="translate(53.666667, 0.666667)">
                                <g id="g228-Clipped">
                                    <mask id="mask-12" fill="white">
                                        <use xlink:href="#path-11"></use>
                                    </mask>
                                    <g id="path232"></g>
                                    <g id="g228" mask="url(#mask-12)" fill="#FFFFFF">
                                        <g id="g234">
                                            <path d="M3.88166667,10.4528571 C3.07190476,10.3504762 2.30357143,10.1888095 1.5147619,10.007381 L1.5147619,10.007381 L1.27190476,7.82190476 C1.91809524,8.065 2.60642857,8.30809524 3.3147619,8.46904762 L3.3147619,8.46904762 C3.98309524,8.63166667 4.6497619,8.73214286 5.31833333,8.73214286 L5.31833333,8.73214286 C5.62119048,8.73214286 5.9852381,8.69261905 6.28904762,8.55071429 L6.28904762,8.55071429 C6.61261905,8.42928571 6.87595238,8.16666667 6.87595238,7.70095238 L6.87595238,7.70095238 C6.87595238,6.97261905 5.86404762,6.70952381 4.62928571,6.44642857 L4.62928571,6.44642857 C3.53761905,6.20357143 2.28380952,5.9402381 1.37285714,5.3747619 L1.37285714,5.3747619 C0.624047619,4.88857143 0.0985714286,4.20119048 0.0985714286,3.10857143 L0.0985714286,3.10857143 C0.0985714286,2.19833333 0.421904762,1.4702381 0.989047619,0.96452381 L0.989047619,0.96452381 C1.65642857,0.357857143 2.66738095,0.054047619 3.92214286,0.054047619 L3.92214286,0.054047619 C4.36690476,0.054047619 5.07595238,0.155 5.64214286,0.195238095 L5.64214286,0.195238095 L6.14738095,2.17785714 C5.72214286,2.03619048 5.29809524,1.935 4.83261905,1.935 L4.83261905,1.935 C4.46833333,1.935 4.08404762,1.99619048 3.80071429,2.17785714 L3.80071429,2.17785714 C3.53761905,2.31952381 3.37571429,2.58261905 3.37571429,2.94690476 L3.37571429,2.94690476 C3.37571429,3.75666667 4.22571429,4.1402381 5.1352381,4.44380952 L5.1352381,4.44380952 C5.84357143,4.66642857 6.61261905,4.86880952 6.99738095,5.15190476 L6.99738095,5.15190476 L6.99738095,2.62333333 L6.99738095,0.296666667 L10.2733333,0.296666667 L10.2733333,3.73571429 L10.2733333,7.90357143 C10.2733333,8.67190476 9.99071429,9.38 9.30285714,9.86547619 L9.30285714,9.86547619 C8.57428571,10.3714286 7.44190476,10.6138095 6.12714286,10.6138095 L6.12714286,10.6138095 C5.37857143,10.6138095 4.6102381,10.5530952 3.88166667,10.4528571" id="path246"></path>
                                        </g>
                                    </g>
                                </g>
                            </g>
                            <g id="g260" transform="translate(66.047619, 0.666667)">
                                <g id="g262-Clipped">
                                    <mask id="mask-14" fill="white">
                                        <use xlink:href="#path-13"></use>
                                    </mask>
                                    <g id="path266"></g>
                                    <g id="g262" mask="url(#mask-14)">
                                        <g transform="translate(-0.000000, 0.000000)" id="g268">
                                            <g transform="translate(0.000000, 0.000000)">
                                                <path d="M0.0357142857,13.7897619 L0.0357142857,9.76428571 L0.0357142857,6.14333333 L0.0357142857,0.296666667 L3.19380952,0.296666667 L3.15261905,1.75333333 L3.19380952,1.71285714 C3.96119048,0.600238095 5.115,0.054047619 6.69357143,0.054047619 L6.69357143,0.054047619 C8.1702381,0.054047619 9.22261905,0.640952381 9.95071429,1.51095238 L9.95071429,1.51095238 C10.7583333,2.52166667 11.1230952,3.89761905 11.1230952,5.21285714 L11.1230952,5.21285714 C11.1230952,7.13452381 10.5571429,8.42928571 9.66738095,9.25880952 L9.66738095,9.25880952 C8.47309524,10.3911905 6.77380952,10.6138095 5.57952381,10.6138095 L5.57952381,10.6138095 C5.29714286,10.6138095 4.89214286,10.5935714 4.46714286,10.5133333 L4.46714286,10.5133333 C4.10285714,10.4728571 3.73833333,10.3911905 3.3752381,10.3111905 L3.3752381,10.3111905 L3.3752381,12.1316667 L3.3752381,13.7897619 L0.0357142857,13.7897619 L0.0357142857,13.7897619 Z M3.3752381,4.96952381 L3.3752381,7.92333333 C3.61714286,7.98452381 3.84071429,8.065 4.08452381,8.10547619 L4.08452381,8.10547619 C4.22428571,8.14595238 4.40666667,8.16666667 4.56738095,8.20690476 L4.56738095,8.20690476 C4.6897619,8.20690476 4.81119048,8.22690476 4.93261905,8.22690476 L4.93261905,8.22690476 C5.03380952,8.24690476 5.115,8.24690476 5.21666667,8.24690476 L5.21666667,8.24690476 C6.06595238,8.24690476 6.73309524,7.92333333 7.15857143,7.37690476 L7.15857143,7.37690476 C7.56261905,6.87142857 7.78547619,6.14333333 7.78547619,5.27309524 L7.78547619,5.27309524 C7.78547619,4.68666667 7.64380952,3.91738095 7.2602381,3.31095238 L7.2602381,3.31095238 C6.93547619,2.80571429 6.41,2.42119048 5.6602381,2.42119048 L5.6602381,2.42119048 C4.22428571,2.42119048 3.3752381,3.77619048 3.3752381,4.96952381 L3.3752381,4.96952381 Z" id="path280" fill="#FFFFFF"></path>
                                            </g>
                                        </g>
                                    </g>
                                </g>
                            </g>
                            <g id="g294" transform="translate(20.761905, 5.904762)">
                                <g id="g296-Clipped">
                                    <mask id="mask-16" fill="white">
                                        <use xlink:href="#path-15"></use>
                                    </mask>
                                    <g id="path300"></g>
                                    <g id="g296" mask="url(#mask-16)" fill-opacity="0.7">
                                        <g transform="translate(-0.190476, -0.238095)" id="g302">
                                            <g transform="translate(0.059881, 0.161357)">
                                                <path d="M4.28571429,3.33333333 C3.71119048,4.39309524 2.37785714,4.79095238 1.30738095,4.22190476 C0.237380952,3.65285714 -0.164285714,2.33238095 0.41047619,1.27285714 C0.985,0.213333333 2.31833333,-0.184761905 3.38833333,0.383809524 C4.45857143,0.953333333 4.86047619,2.27357143 4.28571429,3.33333333" id="path304" fill="#FF0000"></path>
                                            </g>
                                        </g>
                                    </g>
                                </g>
                            </g>
                        </g>
                    </g>
                    <path d="M92.4482422,16 L91.1914062,11.4648438 C91.0390617,10.9843726 90.7636739,9.86817282 90.3652344,8.11621094 L90.2861328,8.11621094 C89.9462874,9.6982501 89.6767588,10.8203092 89.4775391,11.4824219 L88.1855469,16 L85.9003906,16 L83.1757812,6.27929688 L85.2851562,6.27929688 L86.5244141,11.0693359 C86.8056655,12.2529356 87.0048822,13.2665973 87.1220703,14.1103516 L87.1748047,14.1103516 C87.2333987,13.682615 87.3227533,13.1918973 87.4428711,12.6381836 C87.5629889,12.0844699 87.6669917,11.6699233 87.7548828,11.3945312 L89.2314453,6.27929688 L91.4990234,6.27929688 L92.9316406,11.3945312 C93.0195317,11.6816421 93.1293939,12.1210908 93.2612305,12.7128906 C93.3930671,13.3046905 93.470703,13.7646468 93.4941406,14.0927734 L93.5644531,14.0927734 C93.6523442,13.3720667 93.8574203,12.3642643 94.1796875,11.0693359 L95.4365234,6.27929688 L97.5107422,6.27929688 L94.7685547,16 L92.4482422,16 Z M103.425781,16.1757813 C101.914055,16.1757813 100.731938,15.7348677 99.8793945,14.8530273 C99.0268512,13.971187 98.6005859,12.7568437 98.6005859,11.2099609 C98.6005859,9.62206237 98.9960898,8.37402798 99.7871094,7.46582031 C100.578129,6.55761265 101.665032,6.10351562 103.047852,6.10351562 C104.331061,6.10351562 105.344723,6.49316017 106.088867,7.27246094 C106.833012,8.05176171 107.205078,9.12401661 107.205078,10.4892578 L107.205078,11.6054688 L100.727539,11.6054688 C100.756836,12.5488328 101.011716,13.2739232 101.492188,13.7807617 C101.972659,14.2876002 102.64941,14.5410156 103.522461,14.5410156 C104.096683,14.5410156 104.631345,14.4868169 105.126465,14.378418 C105.621585,14.270019 106.153317,14.089845 106.72168,13.8378906 L106.72168,15.5166016 C106.217771,15.7568371 105.70801,15.9267573 105.192383,16.0263672 C104.676755,16.1259771 104.087894,16.1757813 103.425781,16.1757813 Z M103.047852,7.66796875 C102.391598,7.66796875 101.865725,7.87597448 101.470215,8.29199219 C101.074705,8.70800989 100.838868,9.31444914 100.762695,10.1113281 L105.174805,10.1113281 C105.163086,9.30858974 104.969728,8.70068566 104.594727,8.28759766 C104.219725,7.87450965 103.704105,7.66796875 103.047852,7.66796875 Z M114.517578,6.10351562 C115.730475,6.10351562 116.67529,6.54296436 117.352051,7.421875 C118.028812,8.30078564 118.367188,9.53417175 118.367188,11.1220703 C118.367188,12.7158283 118.024417,13.9565385 117.338867,14.8442383 C116.653317,15.731938 115.701178,16.1757812 114.482422,16.1757812 C113.251947,16.1757812 112.296878,15.7334029 111.617188,14.8486328 L111.476562,14.8486328 L111.098633,16 L109.551758,16 L109.551758,2.32421875 L111.617188,2.32421875 L111.617188,5.57617188 C111.617188,5.81640745 111.605469,6.17382575 111.582031,6.6484375 C111.558594,7.12304925 111.541016,7.42480404 111.529297,7.55371094 L111.617188,7.55371094 C112.273441,6.58690923 113.240228,6.10351562 114.517578,6.10351562 Z M113.981445,7.79101563 C113.14941,7.79101563 112.550295,8.03564208 112.184082,8.52490234 C111.817869,9.0141626 111.628906,9.83300207 111.617188,10.9814453 L111.617188,11.1220703 C111.617188,12.30567 111.804686,13.162595 112.179688,13.6928711 C112.554689,14.2231472 113.166988,14.4882813 114.016602,14.4882813 C114.749027,14.4882813 115.304197,14.1982451 115.682129,13.6181641 C116.06006,13.038083 116.249023,12.2002008 116.249023,11.1044922 C116.249023,8.89549677 115.493172,7.79101563 113.981445,7.79101563 Z" id="web" fill="#FFFFFF"></path>
                </g>
            </g>
        </g>
    </g>
</svg>