<?xml version="1.0" encoding="utf-8"?>
<!-- Generator: Adobe Illustrator 16.0.0, SVG Export Plug-In . SVG Version: 6.00 Build 0)  -->
<!DOCTYPE svg PUBLIC "-//W3C//DTD SVG 1.1//EN" "http://www.w3.org/Graphics/SVG/1.1/DTD/svg11.dtd">
<svg version="1.1" id="图层_1" xmlns="http://www.w3.org/2000/svg" xmlns:xlink="http://www.w3.org/1999/xlink" x="0px" y="0px"
	 width="119px" height="16px" viewBox="0 0 119 16" enable-background="new 0 0 119 16" xml:space="preserve">
<title>Group 11</title>
<desc>Created with Sketch.</desc>
<g>
	<path fill="#FFFFFF" d="M12.718,14.698H9.853l-1.031-2.807H4.01l-1.031,2.807H0.115l4.64-12.317h3.322L12.718,14.698z M6.416,4.902
		l-1.833,5.213h3.609L6.416,4.902z"/>
	<path fill="#FFFFFF" d="M13.806,5.933h2.75v5.213c-0.039,1.452,0.573,2.158,1.833,2.119h1.547V5.933h2.692v8.937h-5.156
		c-2.521,0.076-3.743-1.108-3.667-3.552V5.933z"/>
	<path fill="#FFFFFF" d="M23.888,7.709V5.991h1.547V2.324h2.692v3.667h2.005v1.718h-2.005v4.183
		c-0.039,0.916,0.324,1.337,1.088,1.26c0.344-0.037,0.706-0.172,1.088-0.401v1.49c-0.573,0.458-1.26,0.688-2.063,0.688
		c-1.91,0.037-2.845-0.88-2.807-2.75V7.709H23.888z"/>
	<path fill="#FFFFFF" d="M40.845,10.401c-0.115,2.903-1.719,4.411-4.812,4.526c-3.056-0.153-4.66-1.662-4.812-4.526
		c0.152-3.016,1.776-4.583,4.869-4.697C39.146,5.781,40.73,7.347,40.845,10.401z M38.095,10.401
		c-0.039-1.909-0.726-2.883-2.062-2.921c-1.337,0-2.005,0.974-2.005,2.921c0.038,1.872,0.707,2.827,2.005,2.864
		C37.408,13.266,38.095,12.312,38.095,10.401z"/>
	<path fill="#FFFFFF" d="M57.745,2.381l-2.692,12.317h-3.151l-2.12-8.879l-2.177,8.879h-3.323L41.59,2.381h2.807l1.718,9.567
		l2.063-9.567h3.093l2.177,9.567l1.546-9.567H57.745z"/>
	<path fill="#FFFFFF" d="M68.171,11.146h-6.874c0.267,1.375,1.26,2.101,2.979,2.177c1.375,0,2.635-0.573,3.781-1.719v1.833
		c-1.031,1.031-2.483,1.547-4.354,1.547c-3.284-0.114-5.003-1.604-5.155-4.468c0.076-3.094,1.661-4.678,4.755-4.755
		C66.624,5.686,68.247,7.48,68.171,11.146z M61.354,9.428h4.183c-0.039-1.26-0.745-1.909-2.12-1.948
		C62.231,7.48,61.545,8.13,61.354,9.428z"/>
	<path fill="#FFFFFF" d="M74.3,14.928h-4.296V1.522h2.749v4.182H74.3c3.284,0,4.927,1.566,4.927,4.697
		C79.265,13.458,77.623,14.965,74.3,14.928z M73.728,7.48h-0.975v5.786h1.031c1.795,0,2.692-0.935,2.692-2.807
		C76.515,8.436,75.598,7.442,73.728,7.48z"/>
	<path fill="#FFFFFF" d="M86.216,10.401h-2.635v4.297h-2.692V2.381h5.327c3.017,0,4.506,1.337,4.469,4.01
		C90.761,9.142,89.271,10.479,86.216,10.401z M83.581,4.1v4.526H85.7c1.565,0.038,2.311-0.706,2.234-2.234
		C87.972,4.826,87.228,4.063,85.7,4.1H83.581z"/>
	<path fill="#FFFFFF" d="M101.568,10.401c-0.114,2.903-1.718,4.411-4.812,4.526c-3.056-0.153-4.66-1.662-4.813-4.526
		c0.152-3.016,1.776-4.583,4.869-4.697C99.869,5.781,101.454,7.347,101.568,10.401z M98.819,10.401
		c-0.039-1.909-0.727-2.883-2.063-2.921c-1.338,0-2.005,0.974-2.005,2.921c0.037,1.872,0.706,2.827,2.005,2.864
		C98.132,13.266,98.819,12.312,98.819,10.401z"/>
	<path fill="#FFFFFF" d="M102.829,13.495v-1.661c1.107,0.879,2.271,1.355,3.494,1.432c1.604,0.115,2.425-0.209,2.464-0.974
		c0.076-0.534-0.497-0.916-1.719-1.146c-0.688-0.114-1.338-0.248-1.948-0.401c-1.337-0.42-2.024-1.203-2.062-2.349
		c0.075-1.756,1.354-2.654,3.838-2.692c2.329-0.076,3.781,0.802,4.354,2.636h-2.692c-0.229-0.573-0.745-0.86-1.547-0.86
		c-0.765,0.039-1.165,0.306-1.203,0.802c-0.038,0.421,0.363,0.707,1.203,0.859l2.063,0.516c1.68,0.421,2.501,1.317,2.463,2.692
		c0.038,1.68-1.279,2.539-3.952,2.578C105.674,14.965,104.089,14.488,102.829,13.495z"/>
	<path fill="#FFFFFF" d="M112.511,7.709V5.991h1.547V2.324h2.692v3.667h2.005v1.718h-2.005v4.183
		c-0.039,0.916,0.324,1.337,1.088,1.26c0.344-0.037,0.707-0.172,1.089-0.401v1.49c-0.573,0.458-1.261,0.688-2.063,0.688
		c-1.91,0.037-2.846-0.88-2.807-2.75V7.709H112.511z"/>
</g>
</svg>
