<?xml version="1.0" encoding="UTF-8" standalone="no"?>
<svg width="111px" height="16px" viewBox="0 0 111 16" version="1.1" xmlns="http://www.w3.org/2000/svg" xmlns:xlink="http://www.w3.org/1999/xlink">
    <!-- Generator: Sketch 42 (36781) - http://www.bohemiancoding.com/sketch -->
    <title>VCollabLogo Copy</title>
    <desc>Created with Sketch.</desc>
    <defs>
        <path d="M11.0633333,5.13309524 L9.01642857,9.0197619 L12.4728571,15.6264286 L16.5754762,15.6264286 L11.0633333,5.13309524 Z M8.32214286,0.0207142857 L0.0683333333,15.6264286 L4.17,15.6264286 L10.3919048,3.86380952 L8.32214286,0.0207142857 L8.32214286,0.0207142857 Z" id="path-1"></path>
        <path d="M8.24261905,11.4247619 C8.98380952,11.2366667 9.52166667,11.0383333 9.85404762,10.8297619 L9.85404762,10.8297619 C10.1869048,10.6209524 10.5885714,10.2266667 11.0602381,9.6497619 L11.0602381,9.6497619 L13.8052381,11.7802381 C12.3771429,13.5830952 10.522619,14.6064286 8.24261905,14.8509524 L8.24261905,14.8509524 L8.24261905,11.4247619 L8.24261905,11.4247619 Z M1.98285714,12.3221429 C0.73547619,10.9280952 0.111428571,9.30214286 0.111428571,7.44285714 L0.111428571,7.44285714 C0.111428571,5.31404762 0.790238095,3.61095238 2.14880952,2.335 L2.14880952,2.335 C3.07142857,1.4747619 4.0897619,0.857142857 5.20619048,0.482619048 L5.20619048,0.482619048 C5.75357143,0.302857143 6.38785714,0.167857143 7.10928571,0.0776190476 L7.10928571,0.0776190476 L7.10928571,3.47952381 C6.05142857,3.75666667 5.2152381,4.21761905 4.60047619,4.86261905 L4.60047619,4.86261905 C3.93690476,5.5697619 3.605,6.43047619 3.605,7.44285714 L3.605,7.44285714 C3.605,7.90809524 3.6847619,8.35857143 3.84380952,8.79547619 L3.84380952,8.79547619 C4.34095238,10.1342857 5.42904762,11.0183333 7.10928571,11.4488095 L7.10928571,11.4488095 L7.10928571,14.8509524 C4.93880952,14.5592857 3.23095238,13.7169048 1.98285714,12.3221429 L1.98285714,12.3221429 Z M9.90595238,4.06690476 C9.59428571,3.86571429 9.03904762,3.67547619 8.24261905,3.49571429 L8.24261905,3.49571429 L8.24261905,0.0776190476 C9.83,0.375238095 10.9435714,0.71547619 11.5857143,1.10047619 L11.5857143,1.10047619 C12.2264286,1.4852381 12.9804762,2.17571429 13.8469048,3.17309524 L13.8469048,3.17309524 L11.0497619,5.26142857 C10.5642857,4.63785714 10.1830952,4.24 9.90595238,4.06690476 L9.90595238,4.06690476 Z" id="path-3"></path>
        <path d="M1.82690476,9.21833333 C0.81547619,8.32761905 0.208333333,7.01309524 0.208333333,5.33380952 L0.208333333,5.33380952 L0.208333333,5.31404762 C0.208333333,3.89761905 0.653809524,2.74404762 1.40214286,1.87428571 L1.40214286,1.87428571 C2.43357143,0.680714286 4.09285714,0.054047619 5.99452381,0.054047619 L5.99452381,0.054047619 C7.85547619,0.054047619 9.5147619,0.680714286 10.5459524,1.87428571 L10.5459524,1.87428571 C11.2947619,2.74404762 11.7402381,3.89761905 11.7402381,5.33380952 L11.7402381,5.33380952 C11.7402381,7.01309524 11.1333333,8.32761905 10.1211905,9.21833333 L10.1211905,9.21833333 C9.0897619,10.1483333 7.61238095,10.6138095 5.99452381,10.6138095 L5.99452381,10.6138095 C4.33571429,10.6138095 2.85904762,10.1483333 1.82690476,9.21833333 M4.11309524,3.33142857 C3.74880952,3.83690476 3.56714286,4.5247619 3.56714286,5.35404762 L3.56714286,5.35404762 C3.56714286,6.16404762 3.74880952,6.85119048 4.13333333,7.35714286 L4.13333333,7.35714286 C4.53738095,7.88285714 5.165,8.20690476 5.99452381,8.20690476 L5.99452381,8.20690476 C6.80404762,8.20690476 7.41071429,7.90357143 7.835,7.35714286 L7.835,7.35714286 C8.19928571,6.85119048 8.40214286,6.16404762 8.40214286,5.35404762 L8.40214286,5.35404762 C8.40214286,4.505 8.19928571,3.79642857 7.815,3.31095238 L7.815,3.31095238 C7.43095238,2.76452381 6.80404762,2.46166667 5.99452381,2.46166667 L5.99452381,2.46166667 C5.145,2.46166667 4.51714286,2.78452381 4.11309524,3.33142857" id="path-5"></path>
        <polygon id="path-7" points="0.186904762 13.5516667 0.186904762 9.54642857 0.186904762 6.10714286 0.186904762 0.0585714286 3.525 0.0585714286 3.525 4.40785714 3.525 8.23095238 3.525 13.5516667"></polygon>
        <polygon id="path-9" points="0.000476190476 13.5516667 0.000476190476 9.54642857 0.000476190476 6.10714286 0.000476190476 0.0585714286 3.33785714 0.0585714286 3.33785714 4.40785714 3.33785714 8.23095238 3.33785714 13.5516667"></polygon>
        <path d="M3.88166667,10.4528571 C3.07190476,10.3504762 2.30357143,10.1888095 1.5147619,10.007381 L1.5147619,10.007381 L1.27190476,7.82190476 C1.91809524,8.065 2.60642857,8.30809524 3.3147619,8.46904762 L3.3147619,8.46904762 C3.98309524,8.63166667 4.6497619,8.73214286 5.31833333,8.73214286 L5.31833333,8.73214286 C5.62119048,8.73214286 5.9852381,8.69261905 6.28904762,8.55071429 L6.28904762,8.55071429 C6.61261905,8.42928571 6.87595238,8.16666667 6.87595238,7.70095238 L6.87595238,7.70095238 C6.87595238,6.97261905 5.86404762,6.70952381 4.62928571,6.44642857 L4.62928571,6.44642857 C3.53761905,6.20357143 2.28380952,5.9402381 1.37285714,5.3747619 L1.37285714,5.3747619 C0.624047619,4.88857143 0.0985714286,4.20119048 0.0985714286,3.10857143 L0.0985714286,3.10857143 C0.0985714286,2.19833333 0.421904762,1.4702381 0.989047619,0.96452381 L0.989047619,0.96452381 C1.65642857,0.357857143 2.66738095,0.054047619 3.92214286,0.054047619 L3.92214286,0.054047619 C4.36690476,0.054047619 5.07595238,0.155 5.64214286,0.195238095 L5.64214286,0.195238095 L6.14738095,2.17785714 C5.72214286,2.03619048 5.29809524,1.935 4.83261905,1.935 L4.83261905,1.935 C4.46833333,1.935 4.08404762,1.99619048 3.80071429,2.17785714 L3.80071429,2.17785714 C3.53761905,2.31952381 3.37571429,2.58261905 3.37571429,2.94690476 L3.37571429,2.94690476 C3.37571429,3.75666667 4.22571429,4.1402381 5.1352381,4.44380952 L5.1352381,4.44380952 C5.84357143,4.66642857 6.61261905,4.86880952 6.99738095,5.15190476 L6.99738095,5.15190476 L6.99738095,2.62333333 L6.99738095,0.296666667 L10.2733333,0.296666667 L10.2733333,3.73571429 L10.2733333,7.90357143 C10.2733333,8.67190476 9.99071429,9.38 9.30285714,9.86547619 L9.30285714,9.86547619 C8.57428571,10.3714286 7.44190476,10.6138095 6.12714286,10.6138095 L6.12714286,10.6138095 C5.37857143,10.6138095 4.6102381,10.5530952 3.88166667,10.4528571" id="path-11"></path>
        <path d="M0.0357142857,13.7897619 L0.0357142857,9.76428571 L0.0357142857,6.14333333 L0.0357142857,0.296666667 L3.19380952,0.296666667 L3.15261905,1.75333333 L3.19380952,1.71285714 C3.96119048,0.600238095 5.115,0.054047619 6.69357143,0.054047619 L6.69357143,0.054047619 C8.1702381,0.054047619 9.22261905,0.640952381 9.95071429,1.51095238 L9.95071429,1.51095238 C10.7583333,2.52166667 11.1230952,3.89761905 11.1230952,5.21285714 L11.1230952,5.21285714 C11.1230952,7.13452381 10.5571429,8.42928571 9.66738095,9.25880952 L9.66738095,9.25880952 C8.47309524,10.3911905 6.77380952,10.6138095 5.57952381,10.6138095 L5.57952381,10.6138095 C5.29714286,10.6138095 4.89214286,10.5935714 4.46714286,10.5133333 L4.46714286,10.5133333 C4.10285714,10.4728571 3.73833333,10.3911905 3.3752381,10.3111905 L3.3752381,10.3111905 L3.3752381,12.1316667 L3.3752381,13.7897619 L0.0357142857,13.7897619 L0.0357142857,13.7897619 Z M3.3752381,4.96952381 L3.3752381,7.92333333 C3.61714286,7.98452381 3.84071429,8.065 4.08452381,8.10547619 L4.08452381,8.10547619 C4.22428571,8.14595238 4.40666667,8.16666667 4.56738095,8.20690476 L4.56738095,8.20690476 C4.6897619,8.20690476 4.81119048,8.22690476 4.93261905,8.22690476 L4.93261905,8.22690476 C5.03380952,8.24690476 5.115,8.24690476 5.21666667,8.24690476 L5.21666667,8.24690476 C6.06595238,8.24690476 6.73309524,7.92333333 7.15857143,7.37690476 L7.15857143,7.37690476 C7.56261905,6.87142857 7.78547619,6.14333333 7.78547619,5.27309524 L7.78547619,5.27309524 C7.78547619,4.68666667 7.64380952,3.91738095 7.2602381,3.31095238 L7.2602381,3.31095238 C6.93547619,2.80571429 6.41,2.42119048 5.6602381,2.42119048 L5.6602381,2.42119048 C4.22428571,2.42119048 3.3752381,3.77619048 3.3752381,4.96952381 L3.3752381,4.96952381 Z" id="path-13"></path>
        <polygon id="path-15" points="0.0176190476 0.0478571429 4.41714286 0.0478571429 4.41714286 4.40452381 0.0176190476 4.40452381"></polygon>
    </defs>
    <g id="Page-1" stroke="none" stroke-width="1" fill="none" fill-rule="evenodd">
        <g id="VCollabLogo-Copy" transform="translate(0.000000, -1.000000)">
            <g id="VCollabShadedLogo">
                <g id="g10" transform="translate(39.500000, 8.500000) scale(-1, 1) rotate(-180.000000) translate(-39.500000, -8.500000) ">
                    <g id="g62" transform="translate(0.095238, 0.190476)">
                        <g id="g64-Clipped">
                            <g>
                                <mask id="mask-2" fill="white">
                                    <use xlink:href="#path-1"></use>
                                </mask>
                                <use id="path-1" fill="#D8D8D8" xlink:href="#path-1"></use>
                                <g id="g64" mask="url(#mask-2)" fill-rule="nonzero" fill-opacity="0.7" fill="#FFFFFF">
                                    <g id="g70">
                                        <g id="g72">
                                            <path d="M11.0633333,5.13309524 L9.01642857,9.0197619 L12.4728571,15.6264286 L16.5754762,15.6264286 L11.0633333,5.13309524 Z M8.32214286,0.0207142857 L0.0683333333,15.6264286 L4.17,15.6264286 L10.3919048,3.86380952 L8.32214286,0.0207142857 L8.32214286,0.0207142857 Z" id="path84"></path>
                                        </g>
                                    </g>
                                </g>
                            </g>
                        </g>
                    </g>
                    <g id="g90" transform="translate(15.333333, 0.666667)">
                        <g id="g92-Clipped">
                            <g>
                                <mask id="mask-4" fill="white">
                                    <use xlink:href="#path-3"></use>
                                </mask>
                                <use id="path-3" fill="#D8D8D8" xlink:href="#path-3"></use>
                                <g id="g92" mask="url(#mask-4)" fill-rule="nonzero" fill-opacity="0.7" fill="#FFFFFF">
                                    <g id="g98">
                                        <path d="M8.24261905,11.4247619 C8.98380952,11.2366667 9.52166667,11.0383333 9.85404762,10.8297619 L9.85404762,10.8297619 C10.1869048,10.6209524 10.5885714,10.2266667 11.0602381,9.6497619 L11.0602381,9.6497619 L13.8052381,11.7802381 C12.3771429,13.5830952 10.522619,14.6064286 8.24261905,14.8509524 L8.24261905,14.8509524 L8.24261905,11.4247619 L8.24261905,11.4247619 Z M1.98285714,12.3221429 C0.73547619,10.9280952 0.111428571,9.30214286 0.111428571,7.44285714 L0.111428571,7.44285714 C0.111428571,5.31404762 0.790238095,3.61095238 2.14880952,2.335 L2.14880952,2.335 C3.07142857,1.4747619 4.0897619,0.857142857 5.20619048,0.482619048 L5.20619048,0.482619048 C5.75357143,0.302857143 6.38785714,0.167857143 7.10928571,0.0776190476 L7.10928571,0.0776190476 L7.10928571,3.47952381 C6.05142857,3.75666667 5.2152381,4.21761905 4.60047619,4.86261905 L4.60047619,4.86261905 C3.93690476,5.5697619 3.605,6.43047619 3.605,7.44285714 L3.605,7.44285714 C3.605,7.90809524 3.6847619,8.35857143 3.84380952,8.79547619 L3.84380952,8.79547619 C4.34095238,10.1342857 5.42904762,11.0183333 7.10928571,11.4488095 L7.10928571,11.4488095 L7.10928571,14.8509524 C4.93880952,14.5592857 3.23095238,13.7169048 1.98285714,12.3221429 L1.98285714,12.3221429 Z M9.90595238,4.06690476 C9.59428571,3.86571429 9.03904762,3.67547619 8.24261905,3.49571429 L8.24261905,3.49571429 L8.24261905,0.0776190476 C9.83,0.375238095 10.9435714,0.71547619 11.5857143,1.10047619 L11.5857143,1.10047619 C12.2264286,1.4852381 12.9804762,2.17571429 13.8469048,3.17309524 L13.8469048,3.17309524 L11.0497619,5.26142857 C10.5642857,4.63785714 10.1830952,4.24 9.90595238,4.06690476 L9.90595238,4.06690476 Z" id="path110"></path>
                                    </g>
                                </g>
                            </g>
                        </g>
                    </g>
                    <g id="g124" transform="translate(29.380952, 0.666667)">
                        <g id="g126-Clipped">
                            <g>
                                <mask id="mask-6" fill="white">
                                    <use xlink:href="#path-5"></use>
                                </mask>
                                <use id="path-5" fill="#D8D8D8" xlink:href="#path-5"></use>
                                <g id="g126" mask="url(#mask-6)" fill-rule="nonzero" fill-opacity="0.7" fill="#FFFFFF">
                                    <g id="g132">
                                        <path d="M1.82690476,9.21833333 C0.81547619,8.32761905 0.208333333,7.01309524 0.208333333,5.33380952 L0.208333333,5.33380952 L0.208333333,5.31404762 C0.208333333,3.89761905 0.653809524,2.74404762 1.40214286,1.87428571 L1.40214286,1.87428571 C2.43357143,0.680714286 4.09285714,0.054047619 5.99452381,0.054047619 L5.99452381,0.054047619 C7.85547619,0.054047619 9.5147619,0.680714286 10.5459524,1.87428571 L10.5459524,1.87428571 C11.2947619,2.74404762 11.7402381,3.89761905 11.7402381,5.33380952 L11.7402381,5.33380952 C11.7402381,7.01309524 11.1333333,8.32761905 10.1211905,9.21833333 L10.1211905,9.21833333 C9.0897619,10.1483333 7.61238095,10.6138095 5.99452381,10.6138095 L5.99452381,10.6138095 C4.33571429,10.6138095 2.85904762,10.1483333 1.82690476,9.21833333 M4.11309524,3.33142857 C3.74880952,3.83690476 3.56714286,4.5247619 3.56714286,5.35404762 L3.56714286,5.35404762 C3.56714286,6.16404762 3.74880952,6.85119048 4.13333333,7.35714286 L4.13333333,7.35714286 C4.53738095,7.88285714 5.165,8.20690476 5.99452381,8.20690476 L5.99452381,8.20690476 C6.80404762,8.20690476 7.41071429,7.90357143 7.835,7.35714286 L7.835,7.35714286 C8.19928571,6.85119048 8.40214286,6.16404762 8.40214286,5.35404762 L8.40214286,5.35404762 C8.40214286,4.505 8.19928571,3.79642857 7.815,3.31095238 L7.815,3.31095238 C7.43095238,2.76452381 6.80404762,2.46166667 5.99452381,2.46166667 L5.99452381,2.46166667 C5.145,2.46166667 4.51714286,2.78452381 4.11309524,3.33142857" id="path144"></path>
                                    </g>
                                </g>
                            </g>
                        </g>
                    </g>
                    <g id="g158" transform="translate(42.714286, 0.904762)">
                        <g id="g160-Clipped">
                            <g>
                                <mask id="mask-8" fill="white">
                                    <use xlink:href="#path-7"></use>
                                </mask>
                                <use id="path-7" fill="#D8D8D8" xlink:href="#path-7"></use>
                                <g id="g160" mask="url(#mask-8)" fill-rule="nonzero" fill-opacity="0.7" fill="#FFFFFF">
                                    <g id="g166">
                                        <polygon id="path178" points="0.186904762 13.5516667 0.186904762 9.54642857 0.186904762 6.10714286 0.186904762 0.0585714286 3.525 0.0585714286 3.525 4.40785714 3.525 8.23095238 3.525 13.5516667"></polygon>
                                    </g>
                                </g>
                            </g>
                        </g>
                    </g>
                    <g id="g192" transform="translate(48.666667, 0.904762)">
                        <g id="g194-Clipped">
                            <g>
                                <mask id="mask-10" fill="white">
                                    <use xlink:href="#path-9"></use>
                                </mask>
                                <use id="path-9" fill="#D8D8D8" xlink:href="#path-9"></use>
                                <g id="g194" mask="url(#mask-10)" fill-rule="nonzero" fill-opacity="0.7" fill="#FFFFFF">
                                    <g id="g200">
                                        <polygon id="path212" points="0.000476190476 13.5516667 0.000476190476 9.54642857 0.000476190476 6.10714286 0.000476190476 0.0585714286 3.33785714 0.0585714286 3.33785714 4.40785714 3.33785714 8.23095238 3.33785714 13.5516667"></polygon>
                                    </g>
                                </g>
                            </g>
                        </g>
                    </g>
                    <g id="g226" transform="translate(53.666667, 0.666667)">
                        <g id="g228-Clipped">
                            <g>
                                <mask id="mask-12" fill="white">
                                    <use xlink:href="#path-11"></use>
                                </mask>
                                <use id="path-11" fill="#D8D8D8" xlink:href="#path-11"></use>
                                <g id="g228" mask="url(#mask-12)" fill-rule="nonzero" fill-opacity="0.7" fill="#FFFFFF">
                                    <g id="g234">
                                        <path d="M3.88166667,10.4528571 C3.07190476,10.3504762 2.30357143,10.1888095 1.5147619,10.007381 L1.5147619,10.007381 L1.27190476,7.82190476 C1.91809524,8.065 2.60642857,8.30809524 3.3147619,8.46904762 L3.3147619,8.46904762 C3.98309524,8.63166667 4.6497619,8.73214286 5.31833333,8.73214286 L5.31833333,8.73214286 C5.62119048,8.73214286 5.9852381,8.69261905 6.28904762,8.55071429 L6.28904762,8.55071429 C6.61261905,8.42928571 6.87595238,8.16666667 6.87595238,7.70095238 L6.87595238,7.70095238 C6.87595238,6.97261905 5.86404762,6.70952381 4.62928571,6.44642857 L4.62928571,6.44642857 C3.53761905,6.20357143 2.28380952,5.9402381 1.37285714,5.3747619 L1.37285714,5.3747619 C0.624047619,4.88857143 0.0985714286,4.20119048 0.0985714286,3.10857143 L0.0985714286,3.10857143 C0.0985714286,2.19833333 0.421904762,1.4702381 0.989047619,0.96452381 L0.989047619,0.96452381 C1.65642857,0.357857143 2.66738095,0.054047619 3.92214286,0.054047619 L3.92214286,0.054047619 C4.36690476,0.054047619 5.07595238,0.155 5.64214286,0.195238095 L5.64214286,0.195238095 L6.14738095,2.17785714 C5.72214286,2.03619048 5.29809524,1.935 4.83261905,1.935 L4.83261905,1.935 C4.46833333,1.935 4.08404762,1.99619048 3.80071429,2.17785714 L3.80071429,2.17785714 C3.53761905,2.31952381 3.37571429,2.58261905 3.37571429,2.94690476 L3.37571429,2.94690476 C3.37571429,3.75666667 4.22571429,4.1402381 5.1352381,4.44380952 L5.1352381,4.44380952 C5.84357143,4.66642857 6.61261905,4.86880952 6.99738095,5.15190476 L6.99738095,5.15190476 L6.99738095,2.62333333 L6.99738095,0.296666667 L10.2733333,0.296666667 L10.2733333,3.73571429 L10.2733333,7.90357143 C10.2733333,8.67190476 9.99071429,9.38 9.30285714,9.86547619 L9.30285714,9.86547619 C8.57428571,10.3714286 7.44190476,10.6138095 6.12714286,10.6138095 L6.12714286,10.6138095 C5.37857143,10.6138095 4.6102381,10.5530952 3.88166667,10.4528571" id="path246"></path>
                                    </g>
                                </g>
                            </g>
                        </g>
                    </g>
                    <g id="g260" transform="translate(66.047619, 0.666667)">
                        <g id="g262-Clipped">
                            <g>
                                <mask id="mask-14" fill="white">
                                    <use xlink:href="#path-13"></use>
                                </mask>
                                <use id="path-13" fill="#D8D8D8" xlink:href="#path-13"></use>
                                <g id="g262" mask="url(#mask-14)" fill-opacity="0.7">
                                    <g transform="translate(0.000000, 0.000000)" id="g268">
                                        <g>
                                            <path d="M0.0357142857,13.7897619 L0.0357142857,9.76428571 L0.0357142857,6.14333333 L0.0357142857,0.296666667 L3.19380952,0.296666667 L3.15261905,1.75333333 L3.19380952,1.71285714 C3.96119048,0.600238095 5.115,0.054047619 6.69357143,0.054047619 L6.69357143,0.054047619 C8.1702381,0.054047619 9.22261905,0.640952381 9.95071429,1.51095238 L9.95071429,1.51095238 C10.7583333,2.52166667 11.1230952,3.89761905 11.1230952,5.21285714 L11.1230952,5.21285714 C11.1230952,7.13452381 10.5571429,8.42928571 9.66738095,9.25880952 L9.66738095,9.25880952 C8.47309524,10.3911905 6.77380952,10.6138095 5.57952381,10.6138095 L5.57952381,10.6138095 C5.29714286,10.6138095 4.89214286,10.5935714 4.46714286,10.5133333 L4.46714286,10.5133333 C4.10285714,10.4728571 3.73833333,10.3911905 3.3752381,10.3111905 L3.3752381,10.3111905 L3.3752381,12.1316667 L3.3752381,13.7897619 L0.0357142857,13.7897619 L0.0357142857,13.7897619 Z M3.3752381,4.96952381 L3.3752381,7.92333333 C3.61714286,7.98452381 3.84071429,8.065 4.08452381,8.10547619 L4.08452381,8.10547619 C4.22428571,8.14595238 4.40666667,8.16666667 4.56738095,8.20690476 L4.56738095,8.20690476 C4.6897619,8.20690476 4.81119048,8.22690476 4.93261905,8.22690476 L4.93261905,8.22690476 C5.03380952,8.24690476 5.115,8.24690476 5.21666667,8.24690476 L5.21666667,8.24690476 C6.06595238,8.24690476 6.73309524,7.92333333 7.15857143,7.37690476 L7.15857143,7.37690476 C7.56261905,6.87142857 7.78547619,6.14333333 7.78547619,5.27309524 L7.78547619,5.27309524 C7.78547619,4.68666667 7.64380952,3.91738095 7.2602381,3.31095238 L7.2602381,3.31095238 C6.93547619,2.80571429 6.41,2.42119048 5.6602381,2.42119048 L5.6602381,2.42119048 C4.22428571,2.42119048 3.3752381,3.77619048 3.3752381,4.96952381 L3.3752381,4.96952381 Z" id="path280" fill="#FFFFFF" fill-rule="nonzero"></path>
                                        </g>
                                    </g>
                                </g>
                            </g>
                        </g>
                    </g>
                    <g id="g294" transform="translate(20.761905, 5.904762)">
                        <g id="g296-Clipped" transform="translate(0.000000, -0.000000)">
                            <g transform="translate(0.000000, -0.000000)">
                                <mask id="mask-16" fill="white">
                                    <use xlink:href="#path-15"></use>
                                </mask>
                                <g id="path-15"></g>
                                <g id="g296" mask="url(#mask-16)">
                                    <g transform="translate(-1.000000, -1.000000)" id="g302">
                                        <g transform="translate(0.809524, 0.761905)">
                                            <g id="Group" transform="translate(0.059881, 0.161357)" fill-rule="nonzero" fill="#FF0000">
                                                <path d="M4.28571429,3.33333333 C3.71119048,4.39309524 2.37785714,4.79095238 1.30738095,4.22190476 C0.237380952,3.65285714 -0.164285714,2.33238095 0.41047619,1.27285714 C0.985,0.213333333 2.31833333,-0.184761905 3.38833333,0.383809524 C4.45857143,0.953333333 4.86047619,2.27357143 4.28571429,3.33333333" id="path304"></path>
                                            </g>
                                        </g>
                                    </g>
                                </g>
                            </g>
                        </g>
                    </g>
                </g>
            </g>
            <text id="Web" font-family="AdobeGothicStd-Bold, Adobe Gothic Std" font-size="14" font-weight="bold" fill="#FF0000">
                <tspan x="82" y="16">Web</tspan>
            </text>
        </g>
    </g>
</svg>