<?xml version="1.0" encoding="UTF-8"?>
<svg width="24px" height="24px" viewBox="0 0 24 24" version="1.1" xmlns="http://www.w3.org/2000/svg" xmlns:xlink="http://www.w3.org/1999/xlink">
    <!-- Generator: Sketch 41.2 (35397) - http://www.bohemiancoding.com/sketch -->
    <title>Shape</title>
    <desc>Created with Sketch.</desc>
    <defs></defs>
    <g id="Page-1" stroke="none" stroke-width="1" fill="none" fill-rule="evenodd">
        <g id="ic_crop_din_black_24px">
            <polygon id="Shape" points="0 0 24 0 24 24 0 24"></polygon>
            <polygon id="Path" fill="#FFFFFF" transform="translate(15.000000, 12.000000) rotate(45.000000) translate(-15.000000, -12.000000) " points="13 10 17 14 17 10"></polygon>
            <polygon id="Path" fill="#FFFFFF" transform="translate(12.000000, 15.000000) rotate(45.000000) translate(-12.000000, -15.000000) " points="14 13 10 17 14 17"></polygon>
            <polygon id="Path" fill="#FFFFFF" transform="translate(9.000000, 12.000000) rotate(45.000000) translate(-9.000000, -12.000000) " points="11 14 7 10 7 14"></polygon>
            <polygon id="Path" fill="#FFFFFF" transform="translate(12.000000, 9.000000) rotate(45.000000) translate(-12.000000, -9.000000) " points="10 11 14 7 10 7"></polygon>
            <path d="M19,3 L5,3 C3.9,3 3,3.9 3,5 L3,19 C3,20.1 3.9,21 5,21 L19,21 C20.1,21 21,20.1 21,19 L21,5 C21,3.9 20.1,3 19,3 Z M19,19 L5,19 L5,5 L19,5 L19,19 Z" id="Shape" fill="#FFFFFF"></path>
        </g>
    </g>
</svg>