<?xml version="1.0" encoding="UTF-8"?>
<svg width="24px" height="24px" viewBox="0 0 24 24" version="1.1" xmlns="http://www.w3.org/2000/svg" xmlns:xlink="http://www.w3.org/1999/xlink">
    <!-- Generator: Sketch 41.2 (35397) - http://www.bohemiancoding.com/sketch -->
    <title>Shape Copy</title>
    <desc>Created with Sketch.</desc>
    <defs>
        <linearGradient x1="50%" y1="0%" x2="50%" y2="100%" id="linearGradient-1">
            <stop stop-color="#FF0000" offset="0%"></stop>
            <stop stop-color="#FF6600" offset="9.48429524%"></stop>
            <stop stop-color="#FFC900" offset="15.4735848%"></stop>
            <stop stop-color="#FEFF00" offset="22.2090221%"></stop>
            <stop stop-color="#FEFF00" offset="28.3600425%"></stop>
            <stop stop-color="#FEFF00" offset="34.4035338%"></stop>
            <stop stop-color="#F4FF00" offset="40.7783548%"></stop>
            <stop stop-color="#85FF00" offset="46.9752719%"></stop>
            <stop stop-color="#00FF00" offset="53.6613157%"></stop>
            <stop stop-color="#00FF00" offset="60.1646473%"></stop>
            <stop stop-color="#00FF00" offset="65.8348461%"></stop>
            <stop stop-color="#00FF7C" offset="71.68732%"></stop>
            <stop stop-color="#00FFF8" offset="78.2820077%"></stop>
            <stop stop-color="#00BAFF" offset="84.2468191%"></stop>
            <stop stop-color="#006BFF" offset="90.5429602%"></stop>
            <stop stop-color="#1A00FF" offset="100%"></stop>
        </linearGradient>
    </defs>
    <g id="Page-1" stroke="none" stroke-width="1" fill="none" fill-rule="evenodd">
        <g id="PalleteOn">
            <g id="Pallete">
                <polygon id="Shape" points="0 0 24 0 24 24 0 24"></polygon>
                <g id="info" opacity="0.7" transform="translate(14.000000, 3.000000)" fill="#FFFFFF">
                    <rect id="Rectangle-1" x="0" y="0" width="4" height="1"></rect>
                    <rect id="Rectangle-3" x="0" y="4.25" width="4" height="1"></rect>
                    <rect id="Rectangle-5" x="0" y="8.5" width="4" height="1"></rect>
                    <rect id="Rectangle-7" x="0" y="12.75" width="4" height="1"></rect>
                    <rect id="Rectangle-7-Copy" x="0" y="17" width="4" height="1"></rect>
                </g>
                <rect id="Rectangle-2" fill="url(#linearGradient-1)" x="6" y="3" width="6" height="18"></rect>
            </g>
            <g id="ic_check_circle_black_24px" transform="translate(12.000000, 11.000000)">
                <polygon id="Shape" points="0 0 10 0 10 10 0 10"></polygon>
                <path d="M5,0.833333333 C2.7,0.833333333 0.833333333,2.7 0.833333333,5 C0.833333333,7.3 2.7,9.16666667 5,9.16666667 C7.3,9.16666667 9.16666667,7.3 9.16666667,5 C9.16666667,2.7 7.3,0.833333333 5,0.833333333 Z M4.16666667,7.08333333 L2.08333333,5 L2.67083333,4.4125 L4.16666667,5.90416667 L7.32916667,2.74166667 L7.91666667,3.33333333 L4.16666667,7.08333333 Z" id="Shape" fill="#00D813"></path>
            </g>
        </g>
    </g>
</svg>