<?xml version="1.0" encoding="UTF-8" standalone="no"?>
<svg width="24px" height="24px" viewBox="0 0 24 24" version="1.1" xmlns="http://www.w3.org/2000/svg" xmlns:xlink="http://www.w3.org/1999/xlink">
    <!-- Generator: Sketch 42 (36781) - http://www.bohemiancoding.com/sketch -->
    <title>Rectangle</title>
    <desc>Created with Sketch.</desc>
    <defs></defs>
    <g id="Page-1" stroke="none" stroke-width="1" fill="none" fill-rule="evenodd">
        <g id="save-file-option">
            <rect id="Rectangle" x="0" y="0" width="24" height="24"></rect>
            <path d="M20.7467289,7.96328474 C20.5906743,7.58885194 20.4032528,7.29220046 20.1846287,7.07374032 L16.9068656,3.79593622 C16.6885285,3.57759909 16.391877,3.39021868 16.0172802,3.234041 C15.6428884,3.07802733 15.2994123,3 14.987303,3 L4.12383144,3 C3.8117631,3 3.54635535,3.10918907 3.32781321,3.32773121 C3.10927107,3.54615034 3.00012301,3.81151708 3.00012301,4.12374943 L3.00012301,19.8571025 C3.00012301,20.1694169 3.10927107,20.4347836 3.32781321,20.6532437 C3.54635535,20.8715809 3.8117631,20.9808929 4.12383144,20.9808929 L19.8571435,20.9808929 C20.1694989,20.9808929 20.4348246,20.8715809 20.6532847,20.6532437 C20.8716219,20.4347836 20.9807699,20.1694169 20.9807699,19.8571025 L20.9807699,8.99363098 C20.9807699,8.68135763 20.9027836,8.33800456 20.7467289,7.96328474 Z M10.4921412,4.87286105 C10.4921412,4.77142141 10.5292483,4.68379954 10.6034214,4.60950342 C10.6775125,4.53553531 10.7653394,4.49846925 10.866779,4.49846925 L13.1144829,4.49846925 C13.2156765,4.49846925 13.3034624,4.5354533 13.3775945,4.60950342 C13.4519317,4.68379954 13.4889977,4.77142141 13.4889977,4.87286105 L13.4889977,8.61891116 C13.4889977,8.72051481 13.4516856,8.80825968 13.3775945,8.8824328 C13.3034624,8.95635991 13.2156765,8.99346697 13.1144829,8.99346697 L10.866779,8.99346697 C10.7653394,8.99346697 10.6774715,8.95648292 10.6034214,8.8824328 C10.5292483,8.80813667 10.4921412,8.72051481 10.4921412,8.61891116 L10.4921412,4.87286105 Z M16.4858952,19.4825467 L7.49520273,19.4825467 L7.49520273,14.987221 L16.4858952,14.987221 L16.4858952,19.4825467 Z M19.4829157,19.4825467 L17.9842005,19.4825467 L17.9839134,19.4825467 L17.9839134,14.6125831 C17.9839134,14.3002688 17.8747244,14.0350661 17.6562642,13.8164419 C17.4378041,13.5979818 17.1724374,13.4886697 16.86041,13.4886697 L7.12064692,13.4886697 C6.80845558,13.4886697 6.54304784,13.5979818 6.32450569,13.8164419 C6.10608656,14.0349021 5.99681549,14.3002688 5.99681549,14.6125831 L5.99681549,19.4825467 L4.49838724,19.4825467 L4.49838724,4.49830524 L5.99677449,4.49830524 L5.99677449,9.36818679 C5.99677449,9.68041913 6.10592255,9.94566287 6.32446469,10.164205 C6.54300683,10.3826241 6.80841458,10.4919362 7.12060592,10.4919362 L13.8636765,10.4919362 C14.1757039,10.4919362 14.4413576,10.3826241 14.6595308,10.164205 C14.8778679,9.94578588 14.987303,9.68041913 14.987303,9.36818679 L14.987303,4.49830524 C15.1043235,4.49830524 15.2564009,4.5372574 15.4439043,4.61528474 C15.6313667,4.69327107 15.7639681,4.77129841 15.8419954,4.84932574 L19.1316902,8.1389385 C19.2096765,8.21696583 19.2877449,8.35174032 19.3657312,8.54285194 C19.4440046,8.73412756 19.4828747,8.88440091 19.4828747,8.99363098 L19.4828747,19.4825467 L19.4829157,19.4825467 Z" id="Shape" fill="#FFFFFF" fill-rule="nonzero"></path>
        </g>
    </g>
</svg>